<?xml version="1.0" encoding="UTF-8" ?>
<!DOCTYPE svg PUBLIC "-//W3C//DTD SVG 1.1//EN" "http://www.w3.org/Graphics/SVG/1.1/DTD/svg11.dtd">
<svg width="500pt" height="500pt" viewBox="0 0 500 500" version="1.1" xmlns="http://www.w3.org/2000/svg">
<g id="#ffffffff">
</g>
<g id="#000000ff">
<path fill="#000000" opacity="1.00" d=" M 139.60 238.55 C 178.71 165.88 217.64 93.12 256.80 20.48 C 256.98 25.30 257.08 30.12 256.85 34.95 C 257.61 49.66 256.91 64.40 257.55 79.12 C 257.73 88.73 257.46 98.34 257.91 107.94 C 258.12 118.51 257.80 129.09 258.39 139.65 C 318.70 171.64 378.96 203.72 439.25 235.72 C 451.31 242.23 463.54 248.45 475.50 255.14 C 436.92 255.40 398.36 256.45 359.78 256.80 C 320.17 329.00 280.46 401.14 240.78 473.29 C 240.22 434.54 240.25 395.77 239.88 357.01 C 166.99 318.03 94.23 278.80 21.33 239.83 C 60.76 239.24 100.17 238.95 139.60 238.55 M 162.13 238.76 C 187.66 238.57 213.18 237.82 238.70 237.36 C 238.19 219.92 238.54 202.47 238.21 185.03 C 237.78 169.00 238.22 152.96 237.79 136.93 C 237.39 123.85 237.90 110.76 237.43 97.68 C 212.48 144.79 187.16 191.70 162.13 238.76 M 259.67 237.56 C 287.09 237.33 314.52 237.15 341.94 237.14 C 361.10 236.50 380.28 237.02 399.45 236.62 C 352.48 211.37 305.40 186.34 258.42 161.10 C 258.95 186.58 259.21 212.07 259.67 237.56 M 97.94 258.69 C 145.25 283.82 192.34 309.37 239.58 334.64 C 239.26 308.92 239.22 283.19 239.24 257.46 C 192.14 257.80 145.03 258.00 97.94 258.69 M 259.99 256.51 C 259.79 277.01 260.50 297.50 260.37 318.00 C 260.30 330.65 260.86 343.30 260.75 355.95 C 260.82 369.25 260.55 382.56 261.18 395.85 C 286.54 349.48 312.00 303.18 337.38 256.83 C 311.58 256.75 285.79 256.65 259.99 256.51 Z" />
</g>
</svg>
